<svg xmlns="http://www.w3.org/2000/svg" viewBox="0 0 24 24" fill="#07C160">
  <path d="M8.691,2C4.113,2,0.393,5.188,0.393,9.13c0,2.162,1.171,4.129,3.016,5.442l-0.753,2.259l2.631-1.316 c0.933,0.184,1.902,0.283,2.898,0.283c0.261,0,0.52-0.009,0.777-0.026c-0.162-0.548-0.254-1.128-0.254-1.727 c0-3.437,3.303-6.227,7.374-6.227c0.283,0,0.562,0.015,0.838,0.043C16.211,4.453,12.755,2,8.691,2z M6.471,6.045 c0.566,0,1.025,0.459,1.025,1.025s-0.459,1.025-1.025,1.025S5.446,7.636,5.446,7.07S5.905,6.045,6.471,6.045z M11.937,6.045 c0.566,0,1.025,0.459,1.025,1.025s-0.459,1.025-1.025,1.025s-1.025-0.459-1.025-1.025S11.371,6.045,11.937,6.045z M23.607,14.87 c0-3.379-3.379-6.13-7.172-6.13s-7.172,2.751-7.172,6.13s3.379,6.13,7.172,6.13c0.842,0,1.648-0.122,2.41-0.34l2.198,1.098 l-0.628-1.884C22.025,18.715,23.607,16.915,23.607,14.87z M13.517,13.845c-0.471,0-0.854-0.383-0.854-0.854 c0-0.471,0.383-0.854,0.854-0.854s0.854,0.383,0.854,0.854C14.371,13.462,13.988,13.845,13.517,13.845z M18.346,13.845 c-0.471,0-0.854-0.383-0.854-0.854c0-0.471,0.383-0.854,0.854-0.854s0.854,0.383,0.854,0.854 C19.199,13.462,18.816,13.845,18.346,13.845z"/>
</svg> 